<?xml version="1.0" encoding="UTF-8"?> <svg xmlns="http://www.w3.org/2000/svg" id="Capa_2" data-name="Capa 2" viewBox="0 0 848.86 260.95"><defs><style> .cls-1 { fill: #067032; } .cls-2 { fill: #9d9d9c; } .cls-3 { fill: #4eae38; } .cls-4 { fill: #202c55; } </style></defs><g id="Layer_1" data-name="Layer 1"><g><path class="cls-1" d="M848.86,61.23C568.56,5.1,280.17,63.53,0,5.53V39.89c280.23,50.09,568.58-15.06,848.86,34.31v-12.97Z"></path><path class="cls-4" d="M848.86,97.19c-139.45-33.6-283.79-17.08-424.43-10.84C283.1,92.61,143.64,104.69,0,98.88v41.61c142.51-.44,281.35-35.18,424.43-41.54,142.05-6.31,286.34-.77,424.43,41.32v-43.08Z"></path><path class="cls-3" d="M848.86,0C565.01-.68,284.81,86.55,0,62.67v12.06c284.81,30.55,565.02-49.77,848.86-42.57V0Z"></path><path class="cls-2" d="M.05,179.43H31.52c8.82,0,15.78,2.21,20.89,6.61,5.11,4.41,7.66,10.67,7.66,18.78s-2.54,14.53-7.61,18.78c-5.07,4.25-12.05,6.38-20.95,6.38H11.98v30.91H.05v-81.46Zm30.19,40.6c5.46,0,9.79-1.13,12.99-3.39,3.2-2.26,4.8-6.2,4.8-11.82s-1.6-9.58-4.8-11.88c-3.2-2.3-7.53-3.45-12.99-3.45H11.98v30.54H30.24Z"></path><path class="cls-2" d="M66.65,255.73c-4.1-3.47-6.14-8.17-6.14-14.1,0-6.24,1.97-11.06,5.91-14.45,3.94-3.39,9.54-5.09,16.79-5.09,7.72,0,14.28,1.56,19.66,4.68v-2.93c0-4.45-1.35-7.74-4.04-9.89-2.69-2.15-6.92-3.22-12.69-3.22-3.43,0-6.77,.33-10,.99-3.24,.66-6.14,1.58-8.72,2.75v-9.6c2.34-1.09,5.38-1.97,9.13-2.63,3.74-.66,7.37-.99,10.88-.99,9.28,0,16.17,2.05,20.65,6.14,4.48,4.1,6.73,9.77,6.73,17.03v36.51h-11.12v-8.07c-2.42,2.65-5.28,4.66-8.6,6.03-3.32,1.36-7.35,2.05-12.11,2.05-6.79,0-12.23-1.74-16.32-5.21Zm29.43-6.02c3.04-1.48,5.3-3.55,6.79-6.2v-7.61c-5.07-3.28-10.73-4.91-16.97-4.91-4.53,0-7.9,.88-10.12,2.63-2.22,1.75-3.33,4.43-3.33,8.02,0,6.86,4.48,10.3,13.46,10.3,3.74,0,7.14-.74,10.18-2.22Z"></path><path class="cls-2" d="M126.21,202.96h11.47v8.07c2.65-3.35,5.91-5.83,9.77-7.43,3.86-1.6,7.9-2.4,12.11-2.4,7.49,0,13.06,1.99,16.73,5.97,3.67,3.98,5.5,9.32,5.5,16.03v37.69h-11.82v-36.52c0-9.13-4.37-13.69-13.11-13.69-3.74,0-7.24,.88-10.47,2.63-3.24,1.75-6.03,4.43-8.37,8.01v39.56h-11.82v-57.93Z"></path><path class="cls-2" d="M195.39,255.68c-4.1-3.47-6.14-8.17-6.14-14.1,0-6.24,1.97-11.06,5.91-14.45,3.94-3.39,9.54-5.09,16.79-5.09,7.72,0,14.28,1.56,19.66,4.68v-2.93c0-4.45-1.35-7.74-4.04-9.89-2.69-2.15-6.92-3.22-12.69-3.22-3.43,0-6.77,.33-10,.99-3.24,.66-6.14,1.58-8.72,2.75v-9.6c2.34-1.09,5.38-1.97,9.13-2.63,3.74-.66,7.37-.99,10.88-.99,9.28,0,16.17,2.05,20.65,6.14,4.48,4.1,6.73,9.77,6.73,17.03v36.55h-11.12v-8.12c-2.42,2.65-5.28,4.66-8.6,6.03-3.32,1.36-7.35,2.05-12.11,2.05-6.79,0-12.23-1.74-16.32-5.21Zm29.43-6.02c3.04-1.48,5.3-3.55,6.79-6.2v-7.61c-5.07-3.28-10.73-4.91-16.97-4.91-4.53,0-7.9,.88-10.12,2.63-2.22,1.75-3.33,4.43-3.33,8.02,0,6.86,4.48,10.3,13.46,10.3,3.74,0,7.14-.74,10.18-2.22Z"></path><path class="cls-2" d="M254.58,202.97h11.23v8.07c2.65-3.28,5.65-5.73,9.01-7.37,3.35-1.64,6.83-2.46,10.41-2.46,4.52,0,8.11,.76,10.76,2.28,2.65,1.52,4.6,3.84,5.85,6.96,2.5-3.04,5.56-5.34,9.18-6.9,3.63-1.56,7.27-2.34,10.94-2.34,6.86,0,11.82,1.74,14.86,5.21,3.04,3.47,4.56,8.6,4.56,15.39v39.08h-11.47v-37.56c0-4.6-.86-7.86-2.57-9.77-1.72-1.91-4.64-2.87-8.77-2.87-5.93,0-10.77,2.57-14.51,7.72,.16,1.17,.23,3.08,.23,5.73v36.74h-11.47v-37.56c0-4.6-.78-7.86-2.34-9.77-1.56-1.91-4.37-2.87-8.42-2.87-5.93,0-11.23,3.35-15.91,10.06v40.13h-11.58v-57.92Z"></path><path class="cls-2" d="M396.85,207.36c-4.49-4.09-11.36-6.14-20.64-6.14-3.52,0-7.13,.33-10.89,1-3.74,.67-6.78,1.54-9.12,2.63v9.6c2.58-1.16,5.48-2.09,8.71-2.75,3.25-.65,6.57-.99,10.01-.99,5.78,0,10.01,1.07,12.7,3.22,2.69,2.15,4.03,5.44,4.03,9.88v2.93c-5.38-3.12-11.94-4.68-19.66-4.68-7.24,0-12.85,1.69-16.79,5.09-3.93,3.39-5.91,8.2-5.91,14.45,0,5.92,2.05,10.62,6.14,14.09,4.09,3.47,9.53,5.2,16.33,5.2,4.74,0,8.79-.68,12.1-2.04,3.33-1.37,6.19-3.37,8.61-6.03v8.07h11.11v-36.5c0-7.26-2.24-12.92-6.73-17.03Zm-5.2,36.1c-1.48,2.66-3.74,4.73-6.78,6.21-3.04,1.48-6.43,2.21-10.19,2.21-8.96,0-13.45-3.42-13.45-10.28,0-3.6,1.11-6.27,3.33-8.02,2.23-1.75,5.6-2.63,10.12-2.63,6.24,0,11.91,1.62,16.97,4.9v7.61Z"></path><path class="cls-2" d="M445.38,179.44h31.48c8.82,0,15.78,2.21,20.89,6.61,5.11,4.41,7.66,10.67,7.66,18.78s-2.54,14.53-7.6,18.78c-5.07,4.25-12.05,6.38-20.95,6.38h-19.54v30.9h-11.93v-81.45Zm30.19,40.6c5.46,0,9.79-1.13,12.99-3.39,3.2-2.26,4.8-6.2,4.8-11.82s-1.6-9.58-4.8-11.88c-3.2-2.3-7.53-3.45-12.99-3.45h-18.25v30.54h18.25Z"></path><path class="cls-2" d="M513.09,255.68c-4.09-3.47-6.14-8.17-6.14-14.1,0-6.24,1.97-11.06,5.91-14.45,3.94-3.39,9.54-5.09,16.79-5.09,7.72,0,14.28,1.56,19.66,4.68v-2.93c0-4.45-1.34-7.74-4.04-9.89-2.69-2.15-6.92-3.22-12.69-3.22-3.43,0-6.77,.33-10,.99-3.24,.66-6.14,1.58-8.72,2.75v-9.6c2.34-1.09,5.38-1.97,9.13-2.63,3.74-.66,7.37-.99,10.88-.99,9.28,0,16.17,2.05,20.65,6.14,4.48,4.1,6.73,9.77,6.73,17.03v36.51h-11.12v-8.07c-2.42,2.65-5.28,4.66-8.6,6.03-3.32,1.36-7.35,2.05-12.11,2.05-6.79,0-12.23-1.74-16.32-5.21Zm29.43-6.02c3.04-1.48,5.3-3.55,6.79-6.2v-7.61c-5.07-3.28-10.73-4.91-16.97-4.91-4.52,0-7.9,.88-10.12,2.63-2.22,1.75-3.33,4.43-3.33,8.02,0,6.86,4.48,10.3,13.45,10.3,3.74,0,7.14-.74,10.18-2.22Z"></path><path class="cls-2" d="M587.61,257.38c-4.84-2.34-8.6-5.75-11.29-10.24-2.69-4.48-4.04-9.81-4.04-15.97s1.35-11.49,4.04-15.97c2.69-4.48,6.47-7.94,11.35-10.36,4.87-2.42,10.47-3.63,16.79-3.63,8.58,0,15.45,1.68,20.59,5.03v9.71c-5.07-3.51-11.55-5.26-19.42-5.26-6.4,0-11.57,1.74-15.5,5.21-3.94,3.47-5.91,8.56-5.91,15.27s1.95,11.78,5.85,15.21c3.9,3.43,9.01,5.15,15.33,5.15,7.88,0,14.67-1.87,20.36-5.62v9.59c-2.73,1.87-5.83,3.24-9.3,4.1-3.47,.86-7.55,1.29-12.23,1.29-6.24,0-11.78-1.17-16.61-3.51Z"></path><rect class="cls-2" x="635.97" y="201.22" width="11.93" height="59.68"></rect><polygon class="cls-2" points="643.91 179.44 657.61 179.44 647.9 195.88 635.96 195.88 643.91 179.44"></polygon><polygon class="cls-2" points="377.94 179.44 391.64 179.44 381.93 195.88 369.99 195.88 377.94 179.44"></polygon><path class="cls-2" d="M667.49,219.46h-8.54v-9.13h8.54v-11c0-6.47,1.83-11.41,5.5-14.8,3.67-3.39,8.58-5.09,14.74-5.09,3.2,0,6.2,.47,9.01,1.4v9.83c-2.19-1.01-4.45-1.52-6.79-1.52-3.67,0-6.36,.88-8.07,2.63-1.72,1.76-2.57,4.5-2.57,8.25v10.3h14.04v9.13h-14.04v41.43h-11.82v-41.43Z"></path><path class="cls-2" d="M705.42,195.24c-1.33-1.33-1.99-2.96-1.99-4.92s.66-3.59,1.99-4.91c1.32-1.33,2.96-1.99,4.91-1.99s3.72,.66,5.09,1.99c1.36,1.33,2.05,2.97,2.05,4.91s-.68,3.59-2.05,4.92c-1.37,1.33-3.06,1.99-5.09,1.99s-3.59-.66-4.91-1.99Z"></path><rect class="cls-2" x="704.37" y="201.22" width="12.05" height="59.68"></rect><path class="cls-2" d="M741.2,257.44c-4.84-2.34-8.6-5.75-11.29-10.24-2.69-4.48-4.04-9.81-4.04-15.97s1.35-11.49,4.04-15.97c2.69-4.48,6.47-7.94,11.35-10.36,4.87-2.42,10.47-3.63,16.79-3.63,8.58,0,15.45,1.68,20.59,5.03v9.71c-5.07-3.51-11.55-5.26-19.42-5.26-6.4,0-11.57,1.74-15.5,5.21-3.94,3.47-5.91,8.56-5.91,15.27s1.95,11.78,5.85,15.21c3.9,3.43,9.01,5.15,15.33,5.15,7.88,0,14.67-1.87,20.36-5.62v9.59c-2.73,1.87-5.83,3.24-9.3,4.1-3.47,.86-7.55,1.29-12.23,1.29-6.24,0-11.78-1.17-16.61-3.51Z"></path><path class="cls-2" d="M799.69,257.32c-4.8-2.38-8.54-5.81-11.23-10.3-2.69-4.48-4.04-9.77-4.04-15.85s1.33-11.27,3.98-15.8c2.65-4.52,6.39-8.02,11.23-10.47,4.84-2.46,10.41-3.69,16.73-3.69s11.89,1.23,16.73,3.69c4.84,2.46,8.6,5.95,11.29,10.47,2.69,4.52,4.04,9.79,4.04,15.8s-1.34,11.37-4.04,15.85c-2.69,4.49-6.46,7.92-11.29,10.3-4.84,2.38-10.41,3.57-16.73,3.57s-11.88-1.19-16.67-3.57Zm31.18-11.41c3.59-3.74,5.38-8.66,5.38-14.74s-1.8-11.31-5.38-14.98c-3.59-3.67-8.42-5.5-14.51-5.5s-10.92,1.83-14.51,5.5c-3.59,3.67-5.38,8.66-5.38,14.98s1.79,11,5.38,14.74c3.59,3.74,8.42,5.62,14.51,5.62s10.92-1.87,14.51-5.62Z"></path></g></g></svg> 